<?xml version="1.0" encoding="UTF-8" standalone="no"?>
<!DOCTYPE svg PUBLIC "-//W3C//DTD SVG 1.1//EN" "http://www.w3.org/Graphics/SVG/1.1/DTD/svg11.dtd">
<svg width="100%" height="100%" viewBox="0 0 1049 566" version="1.1" xmlns="http://www.w3.org/2000/svg" xmlns:xlink="http://www.w3.org/1999/xlink" xml:space="preserve" xmlns:serif="http://www.serif.com/" style="fill-rule:evenodd;clip-rule:evenodd;stroke-linejoin:round;stroke-miterlimit:2;">
    <g transform="matrix(1.850724,0,0,1.850724,-419.246181,-405.642038)">
        <path d="M547.939,275.204C551.232,280.209 574.692,315.852 589.572,337.452C589.809,337.797 591.943,342.143 593.275,340.314C597.744,334.178 597.34,333.995 601.962,327.885C611.36,315.461 612.416,312.691 615.158,314.932C630.982,327.866 658.594,345.669 664.081,353.771C680.048,377.349 706.169,418.634 709.764,424.316C728.478,453.892 736.276,464.937 738.709,468.383C740.028,470.252 738.088,471.682 736.542,469.463C731.812,462.675 674.223,402.111 654.037,378.976C653.517,378.38 653.387,378.528 646.883,372.141C645.33,370.615 646.393,369.838 641.182,364.845C629.813,353.95 620.343,339.901 618.387,343.403C613.224,352.649 612.659,352.23 607.946,361.741C605.602,366.472 629.968,391.404 632.212,393.7C635.994,397.57 626.778,394.036 626.34,393.867C602.927,384.888 602.447,384.465 600.934,385.962C593.478,393.339 594.269,393.988 581.849,407.81C578.377,411.673 575.922,416.755 576.157,411.502C576.169,411.247 580.305,394.964 580.67,393.527C584.685,377.725 582.896,377.13 568.656,346.424C558.084,323.626 556.582,318.223 554.59,320.6C551.52,324.262 550.587,327.229 547.868,323.226C538.246,309.06 537.907,308.928 536.451,309.009C534.134,309.137 521.663,327.852 520.235,323.658C518.879,319.677 519.621,319.472 504.607,273.461C504.336,272.63 502.452,264.472 500.923,266.904C492.001,281.096 492.756,281.49 483.632,295.618C480.962,299.751 477.506,284.024 475.875,288.689C465.801,317.505 467.051,317.862 456.78,346.602C453.287,356.378 435.06,364.157 435.796,372.472C436.171,376.706 440.883,396.102 441.462,399.507C441.992,402.623 447.866,418.561 441.191,409.844C439.331,407.415 438.985,407.764 415.648,381.382C413.971,379.485 414.305,379.338 412.561,377.442C408.337,372.852 408.064,377.96 398.524,383.532C395.714,385.173 390.983,388.77 390.348,389.253C386.902,391.873 385.63,394.339 385.497,391.501C385.421,389.864 393.097,371.511 394.678,367.576C397.509,360.529 396.176,360.194 392.183,353.693C389.571,349.44 389.505,354.692 381.809,361.861C380.402,363.171 380.562,363.303 365.47,379.473C359.903,385.437 360.47,385.814 354.552,391.555C351.667,394.353 352.538,395.106 320.455,428.456C317.587,431.438 282.089,470.33 281.563,470.125C279.306,469.246 281.479,468.137 336.015,384.215C358.067,350.279 358.266,350.24 365.611,344.652C385.941,329.182 385.914,329.274 391.198,325.099C405.143,314.082 406.219,313.827 407.348,315.591C408.703,317.707 408.439,317.82 423.093,342.769C423.728,343.85 424.694,348.166 426.858,343.728C428.074,341.233 429.239,341.981 445.939,314.758C450.894,306.681 495.783,239.747 500.145,233.243C505.72,224.93 509.537,217.462 511.474,219.528C513.618,221.816 544.286,269.391 547.098,273.754C547.171,273.866 547.16,273.861 547.939,275.204Z" style="fill:rgb(0,28,74);"/>
    </g>
    <g transform="matrix(1.850724,0,0,1.850724,-419.246181,-405.642038)">
        <path d="M331.534,479.926C335.023,478.87 335.069,479.543 338.517,478.554C341.735,477.631 341.822,478.492 344.549,477.67C347.994,476.631 348.076,477.544 351.513,476.542C355.453,475.392 355.683,476.842 359.425,475.322C364.022,473.454 365.5,474.828 367.449,474.256C368.395,473.978 375.498,471.893 379.515,471.724C382.719,471.589 409.348,468.664 410.48,468.394C411.257,468.208 420.284,468.326 421.615,467.894C429.409,465.369 439.787,467.477 443.407,466.198C450.292,463.766 464.618,466.163 468.652,464.916C473.251,463.496 486.672,464.409 503.492,464.076C508.33,463.98 506.298,451.719 506.278,451.7C506.141,451.568 483.536,452.119 474.526,452.105C467.375,452.094 480.644,445.254 482.181,444.106C483.318,443.256 496.319,433.547 496.361,433.429C496.625,432.672 496.443,431.12 486.435,432.076C484.297,432.28 484.735,433.579 482.505,433.593C481.945,433.596 469.679,433.669 476.353,430.242C485.175,425.712 492.005,418.818 496.245,416.159C500.994,413.181 493.783,413.938 493.504,413.967C485.248,414.834 485.238,414.619 484.53,414.751C479.026,415.776 481.219,412.636 481.473,412.467C488.679,407.686 494.252,401.884 498.17,399.116C503.011,395.696 490.816,397.265 490.464,397.381C479.037,401.127 499.094,384.291 501.191,383.024C508.22,378.774 493.733,382.052 493.711,382.044C490.864,381.011 497.005,374.231 497.034,374.186C511.856,350.62 509.192,348.3 511.568,347.978C512.935,347.793 516.408,359.932 521.802,368.309C526.819,376.098 528.971,378.066 530.097,379.716C532.968,383.92 523.952,381.172 523.432,381.013C513.611,378.02 536.23,392.873 536.131,396.476C536.11,397.25 535.928,398.833 526.455,396.883C520.662,395.691 527.881,401.199 533.422,405.594C541.644,412.116 541.65,412.058 542.36,412.628C543.161,413.271 543.227,415.763 540.509,415.378C530.426,413.95 530.359,414.628 529.52,414.354C515.095,409.647 547.708,430.553 548.209,431.598C550.58,436.55 534.967,432.015 527.696,431.995C523.033,431.983 543.218,444.942 547.808,448.076C556.625,454.094 544.025,452.15 540.5,452.156C518.574,452.193 517.142,449.733 516.452,452.485C516.341,452.927 517.353,462.543 517.353,462.545C518.231,465.516 536.335,463.221 540.586,464.029C557.633,467.27 558.879,463.782 565.552,465.223C570.973,466.393 570.905,466.263 576.501,466.416C580.01,466.512 579.91,466.323 583.508,466.432C584.348,466.457 585.652,467.422 587.499,467.517C601.363,468.232 601.293,468.688 602.496,468.728C615.708,469.169 652.775,475.031 656.51,475.091C659.163,475.133 658.913,476.176 661.51,476.258C669.644,476.514 674.337,478.428 675.494,478.541C703.541,481.295 787.84,505.868 792.367,509.67C792.585,509.853 794.608,512.945 789.45,511.705C762.921,505.328 762.986,505.226 751.451,502.715C681.872,487.563 681.333,490.576 675.403,488.821C671.483,487.661 671.316,488.943 667.414,487.839C662.056,486.322 661.829,487.937 656.566,486.269C650.77,484.431 650.527,486.168 645.439,484.731C638.3,482.714 638.026,484.75 633.52,483.44C627.724,481.756 609.625,481.342 608.335,480.871C603.752,479.196 596.999,480.585 594.41,479.739C587.835,477.589 580.939,479.218 578.506,478.475C570.296,475.967 564.575,478.611 560.583,477.282C556.126,475.797 474.994,475.987 473.469,476.396C467.257,478.062 452.679,476.131 449.413,477.303C444.868,478.933 434.096,477.488 431.441,478.33C425.119,480.335 417.658,478.349 414.572,479.664C410.587,481.363 406.209,480.517 401.522,480.776C400.946,480.808 398.752,481.8 397.527,481.877C374.347,483.343 374.51,484.366 372.497,484.406C371.163,484.433 369.828,484.376 368.495,484.428C366.322,484.514 366.644,485.588 364.515,485.673C357.866,485.939 358.031,486.669 351.483,487.017C348.388,487.181 348.547,487.788 345.457,488.148C321.393,490.951 304.761,495.062 303.456,495.19C292.055,496.315 258.168,504.735 254.469,505.229C249.306,505.917 223.506,514.606 226.824,509.748C227.643,508.551 244.913,503.044 246.511,502.534C253.217,500.396 309.595,482.418 331.534,479.926Z" style="fill:rgb(0,29,75);"/>
    </g>
    <g transform="matrix(1.850724,0,0,1.850724,-419.246181,-405.642038)">
        <path d="M609.495,493.699C682.176,501.918 747.024,519.721 747.1,523.521C747.167,526.91 736.852,521.756 721.517,520.355C718.33,520.064 713.27,518.445 712.569,518.221C709.9,517.366 703.266,516.874 702.451,516.813C701.887,516.771 701.995,516.167 695.474,515.668C695.006,515.632 692.475,514.612 691.495,514.582C687.819,514.471 655.293,509.606 653.628,509.078C652.576,508.745 646.609,508.741 646.469,508.708C639.62,507.109 562.823,498.465 511.496,499.089C506.435,499.151 506.6,497.844 501.501,497.87C484.488,497.959 484.551,498.493 467.501,498.381C420.256,498.073 418.627,498.56 414.569,499.776C411.882,500.581 411.789,499.231 379.516,500.83C379.082,500.851 372.001,501.202 374.578,498.578C375.132,498.014 395.516,495.95 398.571,494.662C400.355,493.911 404.087,494.934 408.395,493.291C411.389,492.149 414.814,494.139 419.652,491.81C421.407,490.965 444.142,490.702 449.49,489.439C452.585,488.708 462.113,490.655 472.463,488.264C472.703,488.208 537.459,488.386 537.511,488.392C542.012,488.917 541.937,489.503 558.493,489.291C560.98,489.259 560.915,490.155 589.504,491.435C591.199,491.511 592.803,492.601 593.481,492.642C608.239,493.533 608.211,493.663 609.495,493.699Z" style="fill:rgb(0,28,74);"/>
    </g>
</svg>
